REM DIRINDEX 1\2\4,1\2\5,1\2\6,1\3\7,1\3\8,1\3\9,1\3\10
REM DIRNAME folder01,folder02,folder03,folder04,folder05,folder06,folder07,folder08,folder09,folder10
TITLE ""
FILE "b_049.mp3" MP3
  TRACK 01 AUDIO
    TITLE "0:"
    INDEX 01 00:00:00
  TRACK 02 AUDIO
    TITLE "7:cjc057_05639"
    INDEX 01 00:00:13
  TRACK 03 AUDIO
    TITLE "0:"
    INDEX 01 00:01:42
  TRACK 04 AUDIO
    TITLE "8:cjc057_05640"
    INDEX 01 00:01:71
  TRACK 05 AUDIO
    TITLE "0:"
    INDEX 01 00:03:14
  TRACK 06 AUDIO
    TITLE "9:cjc057_05641"
    INDEX 01 00:03:51
  TRACK 07 AUDIO
    TITLE "0:"
    INDEX 01 00:06:63
  TRACK 08 AUDIO
    TITLE "7:cjc057_05642"
    INDEX 01 00:07:68
  TRACK 09 AUDIO
    TITLE "0:"
    INDEX 01 00:09:06
  TRACK 10 AUDIO
    TITLE "8:cjc057_05643"
    INDEX 01 00:09:32
  TRACK 11 AUDIO
    TITLE "0:"
    INDEX 01 00:10:72
  TRACK 12 AUDIO
    TITLE "9:cjc057_05644"
    INDEX 01 00:11:37
  TRACK 13 AUDIO
    TITLE "0:"
    INDEX 01 00:15:34
  TRACK 14 AUDIO
    TITLE "7:cjc057_05645"
    INDEX 01 00:16:38
  TRACK 15 AUDIO
    TITLE "0:"
    INDEX 01 00:17:70
  TRACK 16 AUDIO
    TITLE "8:cjc057_05646"
    INDEX 01 00:18:25
  TRACK 17 AUDIO
    TITLE "0:"
    INDEX 01 00:19:62
  TRACK 18 AUDIO
    TITLE "9:cjc057_05647"
    INDEX 01 00:20:26
  TRACK 19 AUDIO
    TITLE "0:"
    INDEX 01 00:23:73
  TRACK 20 AUDIO
    TITLE "7:cjc057_05648"
    INDEX 01 00:25:01
  TRACK 21 AUDIO
    TITLE "0:"
    INDEX 01 00:26:09
  TRACK 22 AUDIO
    TITLE "8:cjc057_05649"
    INDEX 01 00:26:38
  TRACK 23 AUDIO
    TITLE "0:"
    INDEX 01 00:27:57
  TRACK 24 AUDIO
    TITLE "9:cjc057_05650"
    INDEX 01 00:28:23
  TRACK 25 AUDIO
    TITLE "0:"
    INDEX 01 00:31:35
  TRACK 26 AUDIO
    TITLE "7:cjc057_05651"
    INDEX 01 00:32:37
  TRACK 27 AUDIO
    TITLE "0:"
    INDEX 01 00:33:71
  TRACK 28 AUDIO
    TITLE "8:cjc057_05652"
    INDEX 01 00:34:26
  TRACK 29 AUDIO
    TITLE "0:"
    INDEX 01 00:36:29
  TRACK 30 AUDIO
    TITLE "9:cjc057_05653"
    INDEX 01 00:36:70
  TRACK 31 AUDIO
    TITLE "0:"
    INDEX 01 00:40:19
  TRACK 32 AUDIO
    TITLE "7:cjc057_05654"
    INDEX 01 00:41:24
  TRACK 33 AUDIO
    TITLE "0:"
    INDEX 01 00:42:45
  TRACK 34 AUDIO
    TITLE "8:cjc057_05655"
    INDEX 01 00:43:01
  TRACK 35 AUDIO
    TITLE "0:"
    INDEX 01 00:44:38
  TRACK 36 AUDIO
    TITLE "9:cjc057_05656"
    INDEX 01 00:44:71
  TRACK 37 AUDIO
    TITLE "0:"
    INDEX 01 00:47:56
  TRACK 38 AUDIO
    TITLE "7:cjc057_05657"
    INDEX 01 00:48:59
  TRACK 39 AUDIO
    TITLE "0:"
    INDEX 01 00:49:74
  TRACK 40 AUDIO
    TITLE "8:cjc057_05658"
    INDEX 01 00:50:29
  TRACK 41 AUDIO
    TITLE "0:"
    INDEX 01 00:51:50
  TRACK 42 AUDIO
    TITLE "9:cjc057_05659"
    INDEX 01 00:52:10
  TRACK 43 AUDIO
    TITLE "0:"
    INDEX 01 00:54:50
  TRACK 44 AUDIO
    TITLE "7:cjc057_05660"
    INDEX 01 00:55:51
  TRACK 45 AUDIO
    TITLE "0:"
    INDEX 01 00:57:01
  TRACK 46 AUDIO
    TITLE "8:cjc057_05661"
    INDEX 01 00:57:31
  TRACK 47 AUDIO
    TITLE "0:"
    INDEX 01 00:59:47
  TRACK 48 AUDIO
    TITLE "9:cjc057_05662"
    INDEX 01 01:00:13
  TRACK 49 AUDIO
    TITLE "0:"
    INDEX 01 01:03:18
  TRACK 50 AUDIO
    TITLE "7:cjc057_05663"
    INDEX 01 01:04:19
  TRACK 51 AUDIO
    TITLE "0:"
    INDEX 01 01:05:54
  TRACK 52 AUDIO
    TITLE "8:cjc057_05664"
    INDEX 01 01:06:08
  TRACK 53 AUDIO
    TITLE "0:"
    INDEX 01 01:07:23
  TRACK 54 AUDIO
    TITLE "9:cjc057_05665"
    INDEX 01 01:07:63
  TRACK 55 AUDIO
    TITLE "0:"
    INDEX 01 01:11:49
  TRACK 56 AUDIO
    TITLE "7:cjc057_05666"
    INDEX 01 01:12:54
  TRACK 57 AUDIO
    TITLE "0:"
    INDEX 01 01:13:71
  TRACK 58 AUDIO
    TITLE "8:cjc057_05667"
    INDEX 01 01:14:25
  TRACK 59 AUDIO
    TITLE "0:"
    INDEX 01 01:16:26
  TRACK 60 AUDIO
    TITLE "9:cjc057_05668"
    INDEX 01 01:16:67
  TRACK 61 AUDIO
    TITLE "0:"
    INDEX 01 01:20:53
  TRACK 62 AUDIO
    TITLE "7:cjc057_05669"
    INDEX 01 01:21:53
  TRACK 63 AUDIO
    TITLE "0:"
    INDEX 01 01:23:01
  TRACK 64 AUDIO
    TITLE "8:cjc057_05670"
    INDEX 01 01:23:30
  TRACK 65 AUDIO
    TITLE "0:"
    INDEX 01 01:25:72
  TRACK 66 AUDIO
    TITLE "9:cjc057_05671"
    INDEX 01 01:26:36
  TRACK 67 AUDIO
    TITLE "0:"
    INDEX 01 01:30:26
  TRACK 68 AUDIO
    TITLE "7:cjc057_05672"
    INDEX 01 01:31:30
  TRACK 69 AUDIO
    TITLE "0:"
    INDEX 01 01:32:53
  TRACK 70 AUDIO
    TITLE "8:cjc057_05673"
    INDEX 01 01:33:07
  TRACK 71 AUDIO
    TITLE "0:"
    INDEX 01 01:35:08
  TRACK 72 AUDIO
    TITLE "9:cjc057_05674"
    INDEX 01 01:35:45
  TRACK 73 AUDIO
    TITLE "0:"
    INDEX 01 01:38:65
